<svg width="1173" height="421" viewBox="0 0 1173 421" fill="none" xmlns="http://www.w3.org/2000/svg">
<path d="M405.048 171.453C405.048 177.521 400.546 182.596 394.553 183.514C391.662 183.951 388.981 184.598 386.512 185.442C381.272 187.219 378.17 191.104 377.236 197.097V201.87H393.107C399.853 201.87 405.319 207.336 405.319 214.082C405.319 220.828 399.853 226.295 393.107 226.295H389.448C382.702 226.295 377.236 231.761 377.236 238.507V331.205C377.236 337.951 371.77 343.417 365.024 343.417H364.738C357.992 343.417 352.525 337.951 352.525 331.205V238.507C352.525 231.761 347.059 226.295 340.313 226.295H339.47C332.724 226.295 327.258 220.828 327.258 214.082V213.796C327.258 207.05 332.724 201.584 339.47 201.584H341.398C347.135 201.584 352.029 197.564 353.293 191.977C353.941 189.086 354.92 186.345 356.185 183.74C358.805 178.394 362.509 173.817 367.282 169.977C372.056 166.137 377.627 163.141 383.997 160.987C385.985 160.31 388.048 159.737 390.171 159.286C397.805 157.614 405.063 163.427 405.063 171.242V171.438L405.048 171.453Z" fill="#108DE8"/>
<path d="M499.975 345.691C489.675 345.691 479.978 343.718 470.898 339.788C461.818 335.858 453.852 330.512 447.015 323.781C440.179 317.035 434.803 309.175 430.858 300.185C426.928 291.195 424.955 281.649 424.955 271.529C424.955 261.41 426.928 251.593 430.858 242.603C434.788 233.613 440.164 225.753 447.015 219.007C453.852 212.26 461.803 206.93 470.898 203C479.978 199.07 489.66 197.097 499.975 197.097C510.29 197.097 519.686 199.07 528.766 203C537.846 206.93 545.767 212.276 552.498 219.007C559.244 225.738 564.575 233.613 568.505 242.603C572.435 251.593 574.408 261.245 574.408 271.529C574.408 281.814 572.435 291.195 568.505 300.185C564.575 309.175 559.229 317.035 552.498 323.781C545.752 330.527 537.846 335.858 528.766 339.788C519.686 343.718 510.094 345.691 499.975 345.691ZM499.975 223.509C493.229 223.509 486.86 224.774 480.881 227.304C474.888 229.833 469.693 233.252 465.296 237.558C460.899 241.865 457.375 246.924 454.755 252.722C452.135 258.519 450.825 264.798 450.825 271.545C450.825 278.291 452.135 284.555 454.755 290.367C457.375 296.165 460.884 301.284 465.296 305.666C469.693 310.078 474.888 313.527 480.881 316.057C486.875 318.586 493.244 319.851 499.975 319.851C506.706 319.851 513.03 318.586 518.933 316.057C524.836 313.527 529.986 310.063 534.383 305.666C538.78 301.269 542.243 296.165 544.773 290.367C547.303 284.57 548.568 278.291 548.568 271.545C548.568 264.798 547.303 258.534 544.773 252.722C542.243 246.924 538.78 241.865 534.383 237.558C529.986 233.252 524.836 229.833 518.933 227.304C513.03 224.774 506.721 223.509 499.975 223.509Z" fill="#108DE8"/>
<path d="M681.276 209.61C681.351 216.642 675.674 222.394 668.642 222.394H667.934C662.122 222.394 656.46 223.328 650.948 225.195C645.422 227.062 640.558 229.833 636.342 233.477C632.126 237.121 628.753 241.578 626.223 246.819C623.693 252.059 622.428 258.052 622.428 264.798V330.241C622.428 337.228 616.766 342.875 609.794 342.875H609.508C602.521 342.875 596.874 337.213 596.874 330.241V214.805C596.874 207.818 602.536 202.171 609.508 202.171C616.495 202.171 622.142 207.833 622.142 214.805V216.763C624.009 212.652 626.735 209.279 630.289 206.644C633.842 204.023 637.772 202.006 642.079 200.605C646.386 199.205 650.738 198.256 655.135 197.789C659.532 197.323 663.417 197.082 666.79 197.082H668.612C675.538 197.082 681.17 202.653 681.245 209.58L681.276 209.61Z" fill="#108DE8"/>
<path d="M729.462 215.634C731.525 211.703 734.19 208.511 737.473 206.087C740.74 203.662 744.113 201.78 747.592 200.47C751.055 199.16 754.428 198.272 757.711 197.805C760.978 197.338 763.659 197.097 765.722 197.097C779.199 197.097 790.056 198.783 798.308 202.156C802.328 203.798 805.822 205.68 808.773 207.773C813.17 210.89 819.118 211.086 823.41 207.833C824.147 207.276 824.9 206.749 825.698 206.237C829.343 203.903 833.047 202.021 836.796 200.621C840.546 199.22 844.009 198.272 847.186 197.805C850.364 197.338 852.713 197.097 854.204 197.097C863.946 197.097 872.319 198.362 879.336 200.892C886.353 203.421 892.12 207.532 896.607 213.254C901.095 218.961 904.423 226.355 906.576 235.45C908.729 244.53 909.813 255.538 909.813 268.458V329.684C909.813 336.671 904.152 342.318 897.18 342.318C890.193 342.318 884.546 336.656 884.546 329.684V267.614C884.546 261.817 884.26 256.245 883.702 250.9C883.145 245.554 881.881 240.841 879.908 236.715C877.935 232.604 875.029 229.276 871.204 226.746C867.364 224.217 862.079 222.771 855.333 222.395C851.583 222.395 847.698 222.952 843.678 224.081C839.642 225.211 835.998 227.123 832.731 229.848C829.448 232.559 826.738 236.263 824.584 240.946C822.431 245.629 821.362 251.442 821.362 258.369V329.714C821.362 336.701 815.7 342.348 808.728 342.348C801.741 342.348 796.094 336.686 796.094 329.714V258.369C796.094 254.996 795.808 251.306 795.251 247.271C794.694 243.25 793.429 239.456 791.456 235.902C789.484 232.348 786.577 229.306 782.753 226.777C778.913 224.247 773.627 222.801 766.881 222.425C762.394 222.425 757.892 223.042 753.404 224.247C748.917 225.467 744.881 227.62 741.327 230.707C737.774 233.794 734.913 238.1 732.759 243.627C730.606 249.153 729.537 256.215 729.537 264.829V330.271C729.537 337.258 723.875 342.905 716.903 342.905H716.617C709.63 342.905 703.983 337.243 703.983 330.271V214.835C703.983 207.849 709.645 202.202 716.617 202.202H716.903C723.89 202.202 729.537 207.864 729.537 214.835V215.679L729.462 215.634Z" fill="#108DE8"/>
<path d="M1109.82 295.969C1120.06 295.969 1126.26 307.684 1120.12 315.876C1120.07 315.936 1120.03 315.996 1119.98 316.056C1115.39 322.14 1110.01 327.395 1103.82 331.792C1097.65 336.189 1090.86 339.607 1083.46 342.047C1076.07 344.471 1068.44 345.691 1060.58 345.691C1050.65 345.691 1041.24 343.763 1032.34 339.939C1023.44 336.099 1015.63 330.904 1008.88 324.353C1002.13 317.803 996.804 310.033 992.874 301.043C988.944 292.054 986.971 282.507 986.971 272.388C986.971 262.269 988.944 253.008 992.874 244.018C996.804 235.028 1002.13 227.123 1008.88 220.286C1015.63 213.45 1023.49 208.014 1032.48 203.993C1041.47 199.973 1051.1 197.955 1061.4 197.955C1069.46 197.955 1077.18 199.22 1084.58 201.75C1091.97 204.28 1098.67 207.788 1104.67 212.275C1110.66 216.763 1115.99 222.154 1120.67 228.418C1120.87 228.674 1121.05 228.93 1121.25 229.201C1127.25 237.453 1121.11 249.078 1110.9 249.078H1110.84C1106.67 249.078 1102.84 246.954 1100.43 243.536C1096.69 238.251 1091.97 233.914 1086.26 230.526C1078.68 226.024 1070.39 223.78 1061.4 223.78C1055.03 223.78 1048.91 225.045 1043 227.574C1037.1 230.104 1031.91 233.522 1027.42 237.829C1022.93 242.136 1019.32 247.286 1016.61 253.279C1013.9 259.272 1012.54 265.642 1012.54 272.373C1012.54 278.546 1013.76 284.54 1016.18 290.352C1018.61 296.149 1022.04 301.269 1026.44 305.651C1030.84 310.063 1035.94 313.572 1041.75 316.177C1047.55 318.812 1053.83 320.107 1060.58 320.107C1069.01 320.107 1077.09 317.908 1084.88 313.511C1090.78 310.169 1095.68 305.997 1099.58 300.983C1102 297.866 1105.66 295.954 1109.62 295.954H1109.83L1109.82 295.969Z" fill="#108DE8"/>
<path d="M947.986 184.523C944.206 184.523 940.939 183.258 938.198 180.728C935.457 178.199 934.087 175.067 934.087 171.317C934.087 167.568 935.457 164.436 938.198 161.906C940.939 159.376 944.206 158.111 947.986 158.111C951.961 158.111 955.304 159.376 958.06 161.906C960.8 164.436 962.171 167.568 962.171 171.317C962.171 175.067 960.8 178.199 958.06 180.728C955.319 183.258 951.961 184.523 947.986 184.523ZM948.121 345.751C941.3 345.751 935.759 340.225 935.759 333.388V217.952C935.759 211.131 941.285 205.59 948.121 205.59C954.943 205.59 960.484 211.116 960.484 217.952V333.388C960.484 340.21 954.958 345.751 948.121 345.751Z" fill="#108DE8"/>
<path d="M1158.82 184.523C1155.04 184.523 1151.77 183.258 1149.03 180.728C1146.29 178.199 1144.92 175.067 1144.92 171.317C1144.92 167.568 1146.29 164.436 1149.03 161.906C1151.77 159.376 1155.04 158.111 1158.82 158.111C1162.79 158.111 1166.13 159.376 1168.89 161.906C1171.63 164.436 1173 167.568 1173 171.317C1173 175.067 1171.63 178.199 1168.89 180.728C1166.15 183.258 1162.79 184.523 1158.82 184.523ZM1158.95 345.751C1152.13 345.751 1146.59 340.225 1146.59 333.388V217.952C1146.59 211.131 1152.11 205.59 1158.95 205.59C1165.77 205.59 1171.31 211.116 1171.31 217.952V333.388C1171.31 340.21 1165.79 345.751 1158.95 345.751Z" fill="#108DE8"/>
<path d="M90.2517 0C79.3683 0 70.498 8.85402 70.498 19.7538V120.372C70.498 131.255 79.352 140.126 90.2517 140.126C101.151 140.126 110.006 131.272 110.006 120.372V19.7538C110.006 8.87039 101.151 0 90.2517 0Z" fill="#FF7C4F"/>
<path d="M286.824 89.8001C283.092 86.0686 278.134 84.0229 272.864 84.0229C267.594 84.0229 262.635 86.085 258.904 89.8001L168.105 180.599C164.373 184.33 162.328 189.289 162.328 194.559C162.328 199.829 164.373 204.788 168.105 208.519C171.836 212.251 176.795 214.296 182.065 214.296C187.335 214.296 192.294 212.234 196.025 208.519L286.84 117.721C294.532 110.028 294.532 97.4922 286.84 89.7838L286.824 89.8001Z" fill="#FF7C4F"/>
<path d="M277.168 222.12L147.549 92.5007C140.905 85.8562 132.067 82.1902 122.673 82.1902C113.279 82.1902 104.441 85.8562 97.7965 92.5007L11.6133 178.684C-2.78881 193.086 -2.78881 216.506 11.6133 230.908L72.8711 292.166V386.483C72.8711 407.53 90.6283 420.541 107.076 420.541C115.816 420.541 124.179 417.104 130.594 410.869L276.824 268.714C283.158 262.56 286.677 254.311 286.742 245.49C286.808 236.669 283.404 228.371 277.168 222.12ZM244.371 245.196L112.379 373.505V292.182L201.868 202.693L244.371 245.196ZM173.931 174.756L92.625 256.063L41.3666 204.804L122.673 123.498L173.931 174.756Z" fill="#108DE8"/>
</svg>
